<svg width="32" height="32" viewBox="0 0 32 32" fill="none" xmlns="http://www.w3.org/2000/svg">
<path fill-rule="evenodd" clip-rule="evenodd" d="M0.301758 11.6853C0.301758 5.40157 5.39571 0.307617 11.6794 0.307617C17.9631 0.307617 23.0571 5.40157 23.0571 11.6853C23.0571 14.1555 22.2702 16.4411 20.9333 18.3062L20.8097 18.4786L31.6982 29.3671L29.3609 31.7044L18.4724 20.8159L18.3 20.9394C16.435 22.2761 14.1495 23.0629 11.6794 23.0629C5.39571 23.0629 0.301758 17.969 0.301758 11.6853ZM11.6794 3.61303C7.22124 3.61303 3.60717 7.2271 3.60717 11.6853C3.60717 16.1435 7.22124 19.7575 11.6794 19.7575C16.1376 19.7575 19.7517 16.1435 19.7517 11.6853C19.7517 7.2271 16.1376 3.61303 11.6794 3.61303Z" fill="#CB11AB"/>
</svg>
