<svg width="60" height="60" viewBox="0 0 60 60" fill="none" xmlns="http://www.w3.org/2000/svg">
<g filter="url(#filter0_b_10_290)">
<path fill-rule="evenodd" clip-rule="evenodd" d="M18.2847 21.6399C17.5194 21.9571 16.6419 21.5938 16.3247 20.8285C16.0076 20.0632 16.3709 19.1857 17.1362 18.8685C17.4846 18.7241 18.0247 18.5425 18.834 18.3576L18.834 18.3576C21.0854 17.8435 24.5525 17.5029 29.9606 17.5029C35.3687 17.5029 38.8358 17.8435 41.0872 18.3576C41.8965 18.5425 42.4366 18.7241 42.785 18.8685C43.5504 19.1857 43.9136 20.0632 43.5965 20.8285C43.2793 21.5938 42.4018 21.9571 41.6365 21.64C41.4739 21.5726 41.0997 21.4377 40.4193 21.2824C38.4906 20.842 35.2836 20.5029 29.9606 20.5029C24.6376 20.5029 21.4306 20.842 19.5019 21.2824C18.8215 21.4377 18.4473 21.5726 18.2847 21.6399ZM15.9878 29.9541C15.9878 29.1257 16.6594 28.4541 17.4878 28.4541H42.5122C43.3406 28.4541 44.0122 29.1257 44.0122 29.9541C44.0122 30.7825 43.3406 31.4541 42.5122 31.4541H17.4878C16.6594 31.4541 15.9878 30.7825 15.9878 29.9541ZM16.3247 39.1776C16.0076 39.9429 16.3708 40.8205 17.1361 41.1377C17.4846 41.2821 18.0247 41.4638 18.8341 41.6486C21.0855 42.1627 24.5525 42.5033 29.9606 42.5033C35.3687 42.5033 38.8357 42.1627 41.0872 41.6486C41.8965 41.4638 42.4366 41.2821 42.785 41.1377C43.5503 40.8205 43.9136 39.943 43.5964 39.1777C43.2793 38.4124 42.4018 38.0491 41.6364 38.3663C41.4739 38.4337 41.0997 38.5685 40.4193 38.7239C38.4906 39.1643 35.2836 39.5033 29.9606 39.5033C24.6376 39.5033 21.4306 39.1643 19.5019 38.7239C18.8215 38.5685 18.4474 38.4336 18.2848 38.3663C17.5195 38.0491 16.6419 38.4123 16.3247 39.1776Z" fill="#CB11AB"/>
</g>
<defs>
<filter id="filter0_b_10_290" x="-12.0122" y="-10.4971" width="84.0244" height="81.0004" filterUnits="userSpaceOnUse" color-interpolation-filters="sRGB">
<feFlood flood-opacity="0" result="BackgroundImageFix"/>
<feGaussianBlur in="BackgroundImageFix" stdDeviation="14"/>
<feComposite in2="SourceAlpha" operator="in" result="effect1_backgroundBlur_10_290"/>
<feBlend mode="normal" in="SourceGraphic" in2="effect1_backgroundBlur_10_290" result="shape"/>
</filter>
</defs>
</svg>
